<?xml version="1.0" encoding="utf-8" ?><svg xmlns="http://www.w3.org/2000/svg" xmlns:xlink="http://www.w3.org/1999/xlink" width="421" height="369" viewBox="0 0 421 369"><path fill="#8CA2B6" d="M91.1339 34.8611C109.81 34.5462 128.56 34.9064 147.244 34.9159L266.964 35.0069L307.943 34.9238C312.602 34.9049 324.544 34.2546 328.562 35.2639C332.38 36.2231 347.611 52.4629 349.978 56.3251C350.279 59.8283 350.038 63.5146 350.019 67.0369L349.941 86.5868L349.865 150.981L349.885 259.497L349.95 297.075C349.963 304.028 350.102 311.007 349.932 317.957C348.147 321.091 331.016 337.79 328.092 339.674C321.841 340.463 315.404 340.095 309.117 339.946C303.529 339.823 297.94 339.774 292.351 339.8L213.36 339.788L128.963 339.802L104.544 339.879C99.881 339.909 94.9913 340.271 90.3657 339.736C87.6796 337.91 69.6126 320.235 69.1316 317.999C68.545 315.272 69.0227 306.286 69.035 302.827L69.1026 265.285L69.0339 109.944L68.9797 75.0615C68.9577 68.8956 68.6304 62.5775 68.986 56.4315C69.0177 55.8845 69.0627 55.415 69.4032 54.9607C72.1887 51.2455 76.1519 47.9229 79.4498 44.643C82.3276 41.7808 85.4401 37.983 88.7932 35.7192C89.5115 35.2343 90.3021 35.0503 91.1339 34.8611Z"/><path fill="#F5F4F4" d="M98.8554 37.8688C110.5 37.7001 122.124 37.9548 133.766 37.9791L198.088 37.9912L280.325 37.9858C295.804 37.9818 311.295 37.8458 326.772 38.0254C329.403 40.4038 331.836 43.0874 334.322 45.6254C338.222 49.608 342.166 53.5632 345.928 57.676C346.6 63.0485 346.243 68.7694 346.245 74.1879L346.246 103.233L346.242 199.439L346.241 280.709L346.266 303.124C346.272 307.793 346.615 312.754 345.834 317.365C343.036 320.744 339.766 323.745 336.661 326.836C333.374 330.108 330.172 333.462 326.864 336.712L319.972 336.763L91.9462 336.736C85.8711 331.154 77.76 323.381 72.5397 317.154C72.0701 313.782 72.2341 310.285 72.1879 306.883C72.0921 300.399 72.047 293.915 72.0524 287.43L72.1958 227.13L72.2118 117.6C72.2062 97.804 71.7327 77.9608 72.3434 58.1734C74.4159 54.8797 77.7917 52.0442 80.5444 49.3102C82.9004 46.9702 85.1788 44.5632 87.4861 42.1762C91.7274 37.7885 92.9435 37.9773 98.8554 37.8688Z"/><path fill="#8CA2B6" d="M97.9845 45.28C102.217 45.0391 106.482 45.2027 110.721 45.2258L130.336 45.2552L195.665 45.2617L277.142 45.2588C291.73 45.2556 306.405 44.8054 320.978 45.367C327.315 51.9921 334.233 58.0047 340.301 64.8894C339.428 74.1688 339.976 83.6583 340 92.9733L340.035 140.874L339.957 310.363C337.805 313.171 335.053 315.659 332.56 318.164C328.708 322.033 324.893 326.139 320.56 329.472C306.179 330.113 291.678 329.751 277.281 329.743L200.215 329.607L133.903 329.615C121.88 329.65 109.665 330.236 97.6625 329.638C91.2905 323.214 84.8443 316.893 78.555 310.385L78.6945 131.769L78.7185 87.4112C78.7155 79.7833 78.539 72.139 78.6896 64.5134C81.5744 61.2058 84.7222 58.1823 87.7858 55.0462C91.0637 51.6907 94.2463 48.1347 97.9845 45.28Z"/><path fill="#F5F4F4" d="M223.99 84.2878C241.611 84.1859 267.322 82.1378 281.194 94.6789C280.712 95.0566 280.432 95.3056 279.762 95.2331C278.011 95.0435 274.703 92.6078 272.882 91.8411C271.047 91.0686 269.05 90.5582 267.107 90.1334C253.932 87.2536 240.163 87.8865 226.751 87.9908L226.746 109.399C236.459 110.326 250.071 118.005 256.251 125.543C262.496 133.161 264.743 142.537 266.798 151.945C260.992 152.413 255.26 153.267 249.501 154.113C246.494 154.555 243.392 154.834 240.433 155.522C238.573 145.634 234.699 139.695 226.8 133.46L226.836 164.175C226.804 168.705 226.969 173.382 226.553 177.888C242.059 182.721 260.016 187.078 268.2 202.678C273.478 212.739 273.985 225.355 270.573 236.086C266.64 248.455 257.42 258.39 245.984 264.295C240.194 267.284 233.506 269.926 226.983 270.642C227.258 272.866 228.599 280.715 227.666 282.311C225.493 279.205 225.062 275.094 224.712 271.422C213.619 272.368 203.022 272.516 191.937 271.369C189.987 270.548 186.35 270.33 184.135 269.911C177.04 268.623 170.291 265.872 164.317 261.832C150.468 252.52 143.887 237.491 140.803 221.574C144.864 221.234 149.003 220.443 153.03 219.804C157.804 219.046 162.654 218.376 167.366 217.3C168.18 222.321 169.669 227.541 172.035 232.059C176.231 240.074 183.425 245.444 191.955 248.103C192.232 234.956 192.011 221.768 192.012 208.617C192.013 201.71 192.418 194.785 192.212 187.881C191.82 190.811 191.998 193.941 191.985 196.901C182.71 194.598 173.331 191.976 165.087 186.985C155.943 181.449 149.168 173.233 146.615 162.736C143.93 151.863 145.688 140.369 151.499 130.795C158.476 119.345 170.219 112.643 182.984 109.462C186.267 108.643 189.654 108.4 192.942 107.606C200.02 106.937 206.898 106.969 213.984 107.542C217.348 107.815 220.688 108.327 224.057 108.547C223.811 100.476 223.983 92.3635 223.99 84.2878Z"/><path fill="#353435" d="M192.394 130.102C203.595 128.58 213.153 128.985 223.99 132.178C223.767 171.067 223.807 209.958 224.11 248.847C215.718 250.443 199.764 252.213 191.955 248.103C192.232 234.956 192.011 221.768 192.012 208.617C192.013 201.71 192.418 194.785 192.212 187.881C192.29 183.611 192.226 179.331 192.214 175.059C192.664 169.009 192.266 162.614 192.089 156.549C191.946 151.627 191.994 146.691 191.995 141.766C191.996 137.895 191.808 133.937 192.394 130.102Z"/><path fill="#8CA2B6" d="M191.988 168.145C187.627 167.178 183.458 165.726 179.703 163.255C175.862 160.728 172.684 157.133 171.784 152.512C170.939 148.171 172.027 143.75 174.494 140.118C178.473 134.262 185.673 131.398 192.394 130.102C191.808 133.937 191.996 137.895 191.995 141.766C191.994 146.691 191.946 151.627 192.089 156.549C192.266 162.614 192.664 169.009 192.214 175.059C191.975 172.775 192.023 170.441 191.988 168.145Z"/><path fill="#8CA2B6" d="M226.802 206.696C231.569 208.124 236.601 209.95 240.25 213.452C243.396 216.472 245.103 220.755 245.183 225.094C245.299 231.328 242.405 236.64 238.218 241.045C234.682 244.302 231.019 246.351 226.526 247.953C226.943 244.323 226.746 240.564 226.79 236.909C226.912 226.843 226.535 216.754 226.802 206.696Z"/><path fill="#353435" d="M111.475 67.2337L162.893 68.4502C189.23 68.8173 215.57 68.8555 241.908 68.5647C256.187 68.4584 270.465 68.1949 284.739 67.7741C291.556 67.5743 298.455 67.5726 305.253 67.0653C305.277 69.1681 305.386 71.2516 305.528 73.3493C305.647 72.6456 305.591 72.0273 306.169 71.5713C306.939 71.5593 306.994 71.5432 307.599 72.0108C308.919 74.7084 308.436 86.1768 308.723 89.9549C309.59 101.072 310.735 112.166 312.159 123.226C312.751 128.048 313.159 132.986 313.989 137.77C308.915 141.472 304.088 145.666 299.526 149.978L297.318 147.565L296.522 146.974C296.265 146.287 296.376 146.117 296.548 145.423C295.916 145.077 295.245 144.719 294.69 144.256C293.935 143.626 293.289 142.848 292.941 141.922C291.359 137.713 291.223 127.103 290.671 121.975C289.802 113.903 287.924 100.097 281.194 94.6789C267.322 82.1378 241.611 84.1859 223.99 84.2878C223.983 92.3635 223.811 100.476 224.057 108.547C220.688 108.327 217.348 107.815 213.984 107.542C206.898 106.969 200.02 106.937 192.942 107.606L192.376 107.376C191.218 104.21 191.939 92.1571 191.989 87.8977C187.102 87.4591 182.159 87.9071 177.263 87.982C164.653 88.175 149.452 87.561 139.12 96.2316C130.732 103.271 129.343 116.224 127.9 126.451C127.393 130.043 127.129 134.015 125.22 137.192C123.403 140.214 119.722 142.404 117.138 144.792C115.715 146.107 113.251 149.184 111.134 149.116C110.692 149.101 110.263 148.959 109.985 148.592C109.81 148.361 109.702 148.026 109.598 147.756C110.065 146.484 123.402 136.856 124.16 133.752C124.322 133.089 124 132.128 123.848 131.478C121.434 135.103 116.83 138.004 113.579 140.891C111.853 142.423 110.315 144.132 108.493 145.558C107.127 144.37 105.872 143.173 104.652 141.832C106.019 136.349 106.927 130.73 107.82 125.153C109.453 114.955 110.691 104.816 111.196 94.493C111.64 85.4193 111.496 76.3154 111.475 67.2337Z"/><path fill="#F5F4F4" d="M159.364 85.0166C170.282 84.1326 181.097 84.5019 192.029 84.4987L191.989 87.8977C187.102 87.4591 182.159 87.9071 177.263 87.982C164.653 88.175 149.452 87.561 139.12 96.2316C130.732 103.271 129.343 116.224 127.9 126.451C127.393 130.043 127.129 134.015 125.22 137.192C123.403 140.214 119.722 142.404 117.138 144.792C115.715 146.107 113.251 149.184 111.134 149.116C110.692 149.101 110.263 148.959 109.985 148.592C109.81 148.361 109.702 148.026 109.598 147.756C110.065 146.484 123.402 136.856 124.16 133.752C124.322 133.089 124 132.128 123.848 131.478C124.635 128.945 124.921 126.11 125.373 123.488C126.503 116.943 127.451 110.193 129.49 103.862C130.557 102.377 131.618 100.882 132.728 99.4286C137.978 92.5575 144.521 89.4568 152.505 86.9042C154.749 86.1868 157.023 85.3333 159.364 85.0166Z"/><path fill="#F5F4F4" d="M305.528 73.3493C305.647 72.6456 305.591 72.0273 306.169 71.5713C306.939 71.5593 306.994 71.5432 307.599 72.0108C308.919 74.7084 308.436 86.1768 308.723 89.9549C309.59 101.072 310.735 112.166 312.159 123.226C312.751 128.048 313.159 132.986 313.989 137.77C308.915 141.472 304.088 145.666 299.526 149.978L297.318 147.565L296.522 146.974C296.265 146.287 296.376 146.117 296.548 145.423C301.992 142.325 305.509 136.002 311.353 133.443C310.181 128.04 309.6 122.498 308.907 117.017C307.066 102.471 306.058 87.9991 305.528 73.3493Z"/><path fill="#8CA2B6" d="M311.353 133.443C311.542 134.035 311.792 134.495 311.492 135.104C309.953 138.229 300.497 145.516 297.318 147.565L296.522 146.974C296.265 146.287 296.376 146.117 296.548 145.423C301.992 142.325 305.509 136.002 311.353 133.443Z"/><path fill="#8CA2B6" d="M129.49 103.862C129.421 103.498 129.353 103.122 129.355 102.75C129.378 99.6887 132.944 95.2508 135.027 93.2175C141.749 86.6566 150.348 84.9401 159.364 85.0166C157.023 85.3333 154.749 86.1868 152.505 86.9042C144.521 89.4568 137.978 92.5575 132.728 99.4286C131.618 100.882 130.557 102.377 129.49 103.862Z"/><path fill="#353435" d="M191.937 271.369C203.022 272.516 213.619 272.368 224.712 271.422C225.062 275.094 225.493 279.205 227.666 282.311C229.413 285.549 232.416 287.171 235.851 288.181C243.874 290.54 252.814 290.281 261.1 290.214C261.609 291.553 262.193 292.78 262.894 294.03C263.578 294.162 263.589 294.227 263.992 294.795C264.78 295.909 265.272 297.486 265.792 298.749C262.5 301.477 259.442 304.073 256.937 307.581C230.933 306.71 204.905 305.354 178.888 306.464C174.895 306.634 159.122 308.274 156.331 306.461L156.076 306.001C156.517 305.332 157.395 305.154 158.14 305.002C161.327 304.355 164.589 304.205 167.789 303.527C163.385 302.827 158.952 303.267 154.508 303.213C153.388 302.423 152.379 301.433 151.356 300.52C155.04 297.297 158.056 293.412 161.897 290.293C166.781 290.201 172.111 289.98 176.801 288.501C182.426 286.727 186.734 282.858 188.959 277.368C189.621 275.734 190.016 273.544 190.9 272.047C191.213 271.516 191.377 271.526 191.937 271.369Z"/><path fill="#F5F4F4" d="M262.894 294.03C263.578 294.162 263.589 294.227 263.992 294.795C264.78 295.909 265.272 297.486 265.792 298.749C262.5 301.477 259.442 304.073 256.937 307.581C230.933 306.71 204.905 305.354 178.888 306.464C174.895 306.634 159.122 308.274 156.331 306.461L156.076 306.001C156.517 305.332 157.395 305.154 158.14 305.002C161.327 304.355 164.589 304.205 167.789 303.527C179.207 302.961 190.635 302.644 202.066 302.574C212.953 302.643 223.836 302.938 234.711 303.458C237.829 303.594 245.003 303.42 247.603 304.093C249.352 303.188 250.955 303.269 252.836 303.547C256.729 301.092 259.9 297.473 262.894 294.03Z"/><path fill="#8CA2B6" d="M262.894 294.03C263.123 296.405 262.46 297.595 260.973 299.422C259.271 301.512 256.904 303.785 254.534 305.099C252.398 304.867 249.601 304.868 247.603 304.093C249.352 303.188 250.955 303.269 252.836 303.547C256.729 301.092 259.9 297.473 262.894 294.03Z"/></svg>